<svg width="522" height="179" viewBox="0 0 522 179" fill="none" xmlns="http://www.w3.org/2000/svg">
<g clip-path="url(#clip0)">
<path d="M31.3721 48.3606C24.2369 45.9823 18.5741 42.6978 14.2703 38.3941C9.96659 34.0903 7.81471 28.8805 7.81471 22.7646C7.81471 16.762 10.0798 11.5522 14.4969 7.02196C18.9139 2.4917 24.5767 0.226562 31.1456 0.226562C37.7145 0.226562 43.3773 2.4917 48.0208 7.13522C50.3992 9.51361 52.3246 12.9113 53.6837 17.2151L42.5845 21.5188C41.2254 17.7813 39.9796 15.403 38.847 14.2704C36.5819 12.0053 33.977 10.8727 31.1456 10.8727C28.3142 10.8727 25.7093 12.0053 23.5574 14.1571C21.2923 16.4223 20.2729 19.2537 20.2729 22.6514C20.2729 26.0491 21.4055 28.9938 23.6706 31.3721C26.049 33.6373 29.3335 35.7892 33.4107 37.7145C41.3387 40.3194 47.9076 44.2834 53.2306 49.6065C59.3465 55.6091 62.4044 62.8575 62.4044 71.1252C62.4044 79.393 59.3465 86.5281 53.3439 92.5307C47.3413 98.5334 39.8664 101.591 31.1456 101.591C22.3116 101.591 14.8366 98.5334 8.72076 92.3042C4.07724 87.5475 1.13257 81.4316 0 73.8434L12.0052 69.5396C12.6847 76.7881 14.8366 81.9979 18.1211 85.2823C21.7453 88.9065 26.1623 90.8319 31.1456 90.8319C36.2421 90.8319 40.6591 88.9065 44.5099 85.1691C48.3606 81.4316 50.1727 76.6748 50.1727 71.1252C50.1727 65.5757 48.3606 60.8189 44.6231 57.1947C40.8857 53.3439 36.4687 50.3993 31.3721 48.3606Z" fill="black"/>
<path d="M86.5281 1.35913V100.459H74.0698V1.35913H86.5281Z" fill="black"/>
<path d="M191.744 1.35913V100.459H179.285V19.9332L146.781 62.631L114.163 19.9332V100.459H101.705V1.35913H114.956L146.781 43.0376L178.493 1.35913H191.744V1.35913Z" fill="black"/>
<path d="M279.291 100.459V1.35913H291.749V89.5861H327.312V100.345H279.291V100.459Z" fill="black"/>
<path d="M453.14 1.35913L509.542 80.5256V1.35913H522V100.459H508.183L453.14 23.3309V100.459H440.682V1.35913H453.14Z" fill="black"/>
<path d="M258.225 12.1185C252.222 6.11591 244.861 2.4917 236.027 1.35913H218.925H206.467V100.459H218.925V72.9374H232.063C242.369 72.9374 251.09 69.4264 258.112 62.2912C265.134 55.1561 268.645 46.7751 268.645 37.035C268.645 27.4082 265.247 19.1404 258.225 12.1185ZM248.938 54.3633C244.181 59.0068 238.632 61.2719 232.403 61.2719H219.038V57.1947V13.0246H232.403C238.745 13.0246 244.295 15.2897 248.938 19.9332C253.695 24.4635 256.073 30.2396 256.073 37.035C256.073 43.9436 253.695 49.7197 248.938 54.3633Z" fill="black"/>
<path d="M224.475 142.477H219.039V178.039H236.82V173.169H224.475V142.477Z" fill="black"/>
<path d="M245.314 142.477H239.878V178.039H245.314V142.477Z" fill="black"/>
<path d="M273.515 168.752L254.828 142.477H249.731V178.039H255.167V152.443L273.402 178.039H279.064V142.477H273.515V168.752Z" fill="black"/>
<path d="M302.962 147.347V142.477H283.142V178.039H302.962V173.169H288.578V162.75H302.962V157.766H288.578V147.347H302.962Z" fill="black"/>
<path d="M385.095 29.6653H369.969V44.7912H385.095V29.6653ZM385.095 56.634H369.969V71.7599H385.095V56.634Z" fill="#CE0033"/>
<path d="M411.479 65.0764C411.127 65.0764 410.776 65.1937 410.541 65.4282C410.307 65.6627 410.307 66.1317 410.307 66.718V68.8286H412.534V66.718C412.534 66.1317 412.417 65.7799 412.3 65.4282C412.065 65.1937 411.831 65.0764 411.479 65.0764Z" fill="#CE0033"/>
<path d="M416.052 64.7249C415.583 64.7249 415.349 64.8421 415.114 65.0766C414.88 65.3111 414.88 65.7801 414.88 66.3664V68.8288H417.342V66.3664C417.342 65.7801 417.225 65.3111 417.108 65.0766C416.756 64.8421 416.521 64.7249 416.052 64.7249Z" fill="#CE0033"/>
<path d="M414.878 34.7075L411.243 36.2318L414.878 37.8734V34.7075Z" fill="#CE0033"/>
<path d="M421.797 24.7408C419.921 21.6922 417.576 18.6436 414.879 15.8294C414.645 15.4777 414.293 15.2432 414.059 14.8914C404.092 5.04197 391.897 0 377.475 0C363.17 0 350.975 5.04197 341.009 15.0087C331.042 24.9753 326 36.9354 326 50.7715C326 64.7248 331.042 76.5676 341.009 86.5343C350.975 96.501 363.17 101.543 377.475 101.543C391.897 101.543 404.092 96.501 414.059 86.5343C414.176 86.417 414.176 86.417 414.293 86.2998C417.224 83.2511 419.804 80.0852 421.797 76.8021C426.605 69.0633 428.95 60.3864 428.95 50.7715C428.95 41.1565 426.605 32.4797 421.797 24.7408ZM400.222 83.1339C393.539 88.0586 386.035 90.6382 377.475 90.6382C366.922 90.6382 357.776 86.7688 350.037 79.0299C342.298 71.2911 338.429 61.9107 338.429 50.6542C338.429 39.515 342.298 30.1346 350.037 22.3957C357.776 14.6569 366.922 10.7875 377.475 10.7875C386.035 10.7875 393.539 13.2498 400.222 18.2918V83.1339ZM419.57 71.7601H407.961V66.1319C407.961 64.9593 408.196 63.904 408.782 63.2005C409.368 62.497 410.072 62.1452 411.01 62.1452C411.596 62.1452 412.065 62.2625 412.534 62.6142C413.003 62.966 413.355 63.3178 413.472 63.904C413.707 63.2005 414.059 62.7315 414.528 62.3797C414.997 62.028 415.583 61.7934 416.286 61.7934C416.873 61.7934 417.459 61.9107 417.928 62.2625C418.397 62.6142 418.749 63.0833 418.983 63.6695C419.218 64.2558 419.335 64.9593 419.335 65.8974V71.7601H419.57ZM419.57 60.3864H407.961V52.1785H410.306V57.455H412.534V52.5303H414.879V57.455H417.224V52.1785H419.57V60.3864ZM419.57 47.7228H410.424V51.2405H407.961V41.2738H410.424V44.7915H419.57V47.7228ZM419.57 32.7142L417.224 33.7695V38.9287L419.57 39.984V43.0326L407.961 37.6389V35.2938L419.57 29.9001V32.7142Z" fill="#CE0033"/>
</g>
<defs>
<clipPath id="clip0">
<rect width="522" height="178.039" fill="white"/>
</clipPath>
</defs>
</svg>
